<svg width="24" height="24" viewBox="0 0 24 24" fill="none" xmlns="http://www.w3.org/2000/svg">
	<path
		d="M22.8925 17.9532C18.4735 21.8264 11.7455 21.6554 7.53033 17.4402C3.31514 13.225 3.14416 6.4971 7.0174 2.07806L7.13648 2.19715L8.95495 4.01561L14.955 10.0156L20.955 16.0156L22.7734 17.8341L22.8925 17.9532Z"
		stroke="#B5A886" stroke-width="1.5"></path>
	<path
		d="M20.7648 15.8255C17.5236 18.5308 12.6947 18.362 9.65167 15.3189C6.60861 12.2759 6.43976 7.447 9.14512 4.20576L10.455 5.51561L14.955 10.0156L19.455 14.5156L20.7648 15.8255Z"
		stroke="#B5A886" stroke-width="1.5"></path>
	<line x1="15.3085" y1="9.3085" x2="9.65167" y2="14.9654" stroke="#B5A886" stroke-width="1.5"></line>
	<line x1="15.3619" y1="10.2251" x2="6.87665" y2="8.81086" stroke="#B5A886" stroke-width="1.5"></line>
	<line x1="14.7442" y1="9.90697" x2="15.7442" y2="17.907" stroke="#B5A886" stroke-width="1.5"></line></svg>