<svg width="48" height="48" viewBox="0 0 48 48" fill="none" xmlns="http://www.w3.org/2000/svg">
	<path
		d="M42 16C43.1045 16 44 15.1045 44 14V6C44 4.89551 43.1045 4 42 4H6C4.89551 4 4 4.89551 4 6V14C4 15.1045 4.89551 16 6 16H7.33333V27.4668L5.86654 30C5.68262 30.3187 5.79134 30.7262 6.11003 30.9108L7.33333 31.6152V38.6667H6C4.89551 38.6667 4 39.5622 4 40.6667V42C4 43.1045 4.89551 44 6 44H42C43.1045 44 44 43.1045 44 42V40.6667C44 39.5622 43.1045 38.6667 42 38.6667H40.6667V22.9827L41.7334 23.1253C41.8216 23.1367 41.9108 23.1426 42 23.1426C43.1045 23.1426 44 22.2474 44 21.1426V19.5241C44 18.9469 43.751 18.3981 43.3167 18.0182C42.8825 17.6383 42.3053 17.4645 41.7334 17.5413L40.6667 17.6839V16H42ZM5.33333 14V6C5.33333 5.63184 5.63184 5.33333 6 5.33333H42C42.3682 5.33333 42.6667 5.63184 42.6667 6V14C42.6667 14.3682 42.3682 14.6667 42 14.6667H6C5.63184 14.6667 5.33333 14.3682 5.33333 14ZM32.6667 20.6667H30V20H32.6667V20.6667ZM28.6667 22C28.6667 23.1045 27.7712 24 26.6667 24H21.3333C20.2288 24 19.3333 23.1045 19.3333 22V18.6667H28.6667V22ZM23.3333 25.3333H24.6667V26.6667H23.3333V25.3333ZM27.3333 17.3333H20.6667V16H27.3333V17.3333ZM7.35742 30.0908L9.69076 26.0501L11.4242 27.0501L9.09082 31.0892L7.35742 30.0908ZM11.5465 25.5827L11.3467 25.4674L11.1406 25.348L13.2454 21.6667C13.3037 21.5654 13.334 21.4502 13.3333 21.3333V16H14V21.1608L11.5465 25.5827ZM8.66667 16H12V21.1559L9.986 24.682L9.7793 24.5628C9.62598 24.4736 9.44369 24.4492 9.27246 24.4951C9.10091 24.541 8.95508 24.653 8.86654 24.8066L8.66667 25.1572V16ZM42.6667 40.6667V42C42.6667 42.3682 42.3682 42.6667 42 42.6667H6C5.63184 42.6667 5.33333 42.3682 5.33333 42V40.6667C5.33333 40.2985 5.63184 40 6 40H42C42.3682 40 42.6667 40.2985 42.6667 40.6667ZM30.6667 33.3333V32.6667C31.403 32.6667 32 33.2637 32 34C32 34.7363 31.403 35.3333 30.6667 35.3333H30.3167C30.5469 34.6917 30.6654 34.015 30.6667 33.3333ZM29.3333 33.3333C29.3304 35.9095 27.2428 37.9971 24.6667 38H23.3333C20.7572 37.9971 18.6696 35.9095 18.6667 33.3333V31.3333H29.3333V33.3333ZM39.3333 38.6667H27.4001C28.3066 38.2005 29.0804 37.5124 29.6494 36.6667H30.6667C32.1393 36.6667 33.3333 35.4727 33.3333 34C33.3333 32.5273 32.1393 31.3333 30.6667 31.3333V30.6667C30.6667 30.2985 30.3682 30 30 30H18C17.6318 30 17.3333 30.2985 17.3333 30.6667V33.3333C17.3363 35.583 18.5973 37.6419 20.5999 38.6667H8.66667V32.3854L9 32.5781C9.06999 32.6159 9.14583 32.6413 9.22461 32.6527C9.24251 32.6559 9.26009 32.6579 9.278 32.6602C9.2959 32.6621 9.31478 32.6667 9.33333 32.6667C9.3916 32.6663 9.44954 32.6589 9.50586 32.6439L9.51335 32.6406C9.58333 32.6198 9.64974 32.5876 9.70931 32.5452C9.72526 32.5339 9.73991 32.5228 9.75521 32.5101C9.81771 32.4609 9.87044 32.401 9.91146 32.3333L12.9115 27.14C13.0902 26.8363 12.9961 26.4456 12.6986 26.2565L15.2507 21.6566C15.3053 21.5576 15.3337 21.4463 15.3333 21.3333V16H19.3333V17.3333H18.6667C18.2985 17.3333 18 17.6318 18 18V22C18.0023 23.8402 19.4932 25.3311 21.3333 25.3333H22V27.3333C22 27.7015 22.2985 28 22.6667 28H25.3333C25.7015 28 26 27.7015 26 27.3333V25.3333H26.6667C28.5068 25.3311 29.9977 23.8402 30 22H33.2894L39.3333 22.8053V38.6667ZM41.9121 18.8665C42.1019 18.8415 42.2933 18.8991 42.4378 19.0247C42.5824 19.1507 42.6657 19.3324 42.6667 19.5241V21.1426C42.6676 21.3353 42.5843 21.5186 42.4388 21.6445C42.2939 21.7712 42.1019 21.8288 41.9115 21.8034L40.0941 21.5612H40.0879L34 20.7493V19.9173L40.0879 19.1074H40.0941L41.9121 18.8665ZM39.3333 17.8613L33.2894 18.6667H30V18C30 17.6318 29.7015 17.3333 29.3333 17.3333H28.6667V16H39.3333V17.8613Z"
		fill="black"></path>
	<path
		d="M28.6667 10.3333H29C29.3682 10.3333 29.6667 10.0348 29.6667 9.66667C29.6667 9.2985 29.3682 9 29 9H28.6667C28.2985 9 28 9.2985 28 9.66667C28 10.0348 28.2985 10.3333 28.6667 10.3333Z"
		fill="black"></path>
	<path
		d="M31.3333 10.3333H31.6666C32.0348 10.3333 32.3333 10.0348 32.3333 9.66667C32.3333 9.2985 32.0348 9 31.6666 9H31.3333C30.9651 9 30.6666 9.2985 30.6666 9.66667C30.6666 10.0348 30.9651 10.3333 31.3333 10.3333Z"
		fill="black"></path>
	<path
		d="M18.5 12C19.8806 12 21 10.8806 21 9.5C21 8.11938 19.8806 7 18.5 7C17.1194 7 16 8.11938 16 9.5C16 10.8806 17.1194 12 18.5 12ZM18.5 8.25C19.1903 8.25 19.75 8.80969 19.75 9.5C19.75 10.1903 19.1903 10.75 18.5 10.75C17.8097 10.75 17.25 10.1903 17.25 9.5C17.25 8.80969 17.8097 8.25 18.5 8.25Z"
		fill="black"></path>
	<path
		d="M24.5 12C25.8806 12 27 10.8806 27 9.5C27 8.11938 25.8806 7 24.5 7C23.1194 7 22 8.11938 22 9.5C22 10.8806 23.1194 12 24.5 12ZM24.5 8.25C25.1903 8.25 25.75 8.80969 25.75 9.5C25.75 10.1903 25.1903 10.75 24.5 10.75C23.8097 10.75 23.25 10.1903 23.25 9.5C23.25 8.80969 23.8097 8.25 24.5 8.25Z"
		fill="black"></path></svg>