<svg width="24" height="24" viewBox="0 0 24 24" fill="none" xmlns="http://www.w3.org/2000/svg">
						<path
		d="M17.4 3H6.6C4.61177 3 3 4.61177 3 6.6V17.4C3 19.3882 4.61177 21 6.6 21H17.4C19.3882 21 21 19.3882 21 17.4V6.6C21 4.61177 19.3882 3 17.4 3Z"
		stroke="black" stroke-width="1.5" stroke-linecap="round"></path>
						<path
		d="M8 12C8 14.2091 9.79086 16 12 16C14.2091 16 16 14.2091 16 12C16 9.79086 14.2091 8 12 8C9.79086 8 8 9.79086 8 12Z"
		stroke="black" stroke-width="1.5" stroke-linecap="round"></path>
						<path
		d="M17 6.5C17 6.22386 16.7761 6 16.5 6C16.2239 6 16 6.22386 16 6.5C16 6.77614 16.2239 7 16.5 7C16.7761 7 17 6.77614 17 6.5Z"
		fill="black" stroke="black" stroke-width="1.5" stroke-linecap="round"></path></svg>