<svg width="48" height="48" viewBox="0 0 48 48" fill="none" xmlns="http://www.w3.org/2000/svg">
	<path
		d="M11.0602 11.0527C11.1669 10.8174 11.397 10.6667 11.6499 10.6667H14.6308L15.5175 9.75749C16.6119 8.62858 18.1014 7.99577 19.6534 8H20.6328L20.3599 6.32878C20.2656 5.7487 20.4253 5.15527 20.796 4.70671C21.1667 4.25814 21.7113 3.99967 22.2845 4H23.1154C23.6886 3.99967 24.2332 4.25814 24.6039 4.70671C24.9746 5.15527 25.1343 5.7487 25.04 6.32878L24.7671 8H25.7465C27.2985 7.99577 28.788 8.62858 29.8823 9.75749L30.7691 10.6667H33.75C35.5442 10.6689 36.9978 12.1598 37 14C37 14.0306 36.9981 14.0612 36.9943 14.0915L35.7 23.7181C35.686 24.6383 34.9475 25.373 34.0499 25.359C33.1524 25.3447 32.436 24.5872 32.45 23.6667C32.4497 23.6341 32.4522 23.6016 32.4573 23.5693L33.75 14.6253C33.7287 14.2734 33.4437 13.9993 33.1 14H31.4515L29.9976 24.9372C29.8624 25.9264 29.0391 26.6634 28.065 26.6667H27.25V28H28.55C28.875 28 29.1501 28.2464 29.1943 28.5768L31.1443 43.2435C31.1693 43.4342 31.1132 43.6266 30.9897 43.7718C30.8662 43.9167 30.6876 44 30.5 44H14.8999C14.7123 44 14.5337 43.9167 14.4102 43.7718C14.2867 43.6266 14.2306 43.4342 14.2556 43.2435L16.2056 28.5768C16.2498 28.2464 16.5249 28 16.8499 28H18.1499V26.6667H17.3485C16.3646 26.6667 15.5347 25.9147 15.4134 24.9134L14.3505 16.1393C14.3042 15.7536 14.1487 15.3903 13.9033 15.0941L11.1538 11.764C10.9904 11.5658 10.9539 11.2881 11.0602 11.0527ZM23.7562 6.11003C23.7876 5.91667 23.7346 5.71908 23.6112 5.56934C23.4877 5.4196 23.3065 5.33333 23.1154 5.33333H22.2845C22.0934 5.33333 21.9122 5.4196 21.7887 5.56934C21.6653 5.71908 21.6123 5.91667 21.6437 6.11003L21.9506 8H23.4493L23.7562 6.11003ZM25.7465 9.33333H19.6534C18.4619 9.33008 17.3174 9.80924 16.4684 10.6667H28.9308C28.0821 9.80924 26.9377 9.33008 25.7465 9.33333ZM33.1 12.6667C34.1769 12.6667 35.05 13.5622 35.05 14.6667C35.0503 14.6992 35.0478 14.7318 35.0427 14.764L33.75 23.7028C33.7598 23.8867 33.9131 24.028 34.0924 24.0179C34.2721 24.0081 34.4098 23.8509 34.4 23.6667C34.4 23.6361 34.4019 23.6055 34.4057 23.5752L35.7 13.958C35.6759 12.8708 34.8104 12.0016 33.75 12H31.7175L31.6283 12.6667H33.1ZM28.7093 24.7575L30.4051 12H26.5435L26.0065 18.0605C25.9757 18.4049 25.6935 18.668 25.3565 18.6663H25.2971C25.1254 18.6507 24.9667 18.5654 24.8563 18.4294C24.7458 18.2933 24.6925 18.1182 24.7084 17.9417L25.2349 12H20.1583L21.3434 25.3333H24.0564L24.7118 17.9395C24.7442 17.5726 25.0607 17.3024 25.4183 17.3359C25.7757 17.3695 26.0391 17.694 26.0065 18.0605L25.3618 25.3333H28.065C28.39 25.3333 28.6652 25.0876 28.7093 24.7575ZM27.9825 29.3333H25.3618L26.5435 42.6667H29.7551L27.9825 29.3333ZM15.6448 42.6667H18.8564L19.4499 35.9395C19.4826 35.5713 19.8 35.2998 20.159 35.3333C20.5179 35.3669 20.7826 35.6924 20.7499 36.0605L20.165 42.6667H25.2349L24.0533 29.3333H21.3403L20.6618 37.0352C20.631 37.3796 20.3489 37.6426 20.0118 37.6413H19.9525C19.7808 37.6253 19.6221 37.54 19.5116 37.404C19.4012 37.2682 19.3482 37.0928 19.3637 36.9167L20.0349 29.3333H17.4142L15.6448 42.6667ZM19.4499 28H25.95V26.6667H19.4499V28ZM14.8955 14.2327C15.3043 14.7266 15.5633 15.3324 15.6404 15.9753L16.703 24.7493C16.7436 25.083 17.0204 25.3337 17.3485 25.3333H20.0349L18.8533 12H13.0493L14.8955 14.2327Z"
		fill="black"></path></svg>