<svg width="48" height="48" viewBox="0 0 48 48" fill="none" xmlns="http://www.w3.org/2000/svg">
	<path
		d="M38 31.3333C37.9991 30.4496 37.6635 29.6023 37.067 28.9774C36.4705 28.3525 35.6618 28.001 34.8182 28H31.6364V26C31.6364 25.8232 31.5693 25.6536 31.45 25.5286C31.3306 25.4036 31.1688 25.3333 31 25.3333H29.0909V23.3333C29.0909 23.1565 29.0239 22.987 28.9045 22.8619C28.7852 22.7369 28.6233 22.6667 28.4545 22.6667H27.8182V11.3333C27.8182 11.1565 27.7511 10.987 27.6318 10.8619C27.5125 10.7369 27.3506 10.6667 27.1818 10.6667H25.2727V8H27.1818C27.3506 8 27.5125 7.92976 27.6318 7.80474C27.7511 7.67971 27.8182 7.51014 27.8182 7.33333V4.66667C27.8182 4.48986 27.7511 4.32029 27.6318 4.19526C27.5125 4.07024 27.3506 4 27.1818 4H14.4545C14.2858 4 14.1239 4.07024 14.0046 4.19526C13.8852 4.32029 13.8182 4.48986 13.8182 4.66667V7.33333C13.8182 7.51014 13.8852 7.67971 14.0046 7.80474C14.1239 7.92976 14.2858 8 14.4545 8H16.3636V10.6667H14.4545C14.2858 10.6667 14.1239 10.7369 14.0046 10.8619C13.8852 10.987 13.8182 11.1565 13.8182 11.3333V22.6667H13.1818C13.013 22.6667 12.8512 22.7369 12.7318 22.8619C12.6125 22.987 12.5455 23.1565 12.5455 23.3333V25.3333H10.6364C10.4676 25.3333 10.3057 25.4036 10.1864 25.5286C10.067 25.6536 10 25.8232 10 26V28.6667C10 28.8435 10.067 29.013 10.1864 29.1381C10.3057 29.2631 10.4676 29.3333 10.6364 29.3333H11.2727V38C11.2744 39.5908 11.8784 41.1158 12.9521 42.2407C14.0258 43.3655 15.4816 43.9982 17 44H24.6364C25.8214 43.9984 26.977 43.6124 27.9441 42.8949C28.9113 42.1775 29.6426 41.1638 30.0375 39.9933C32.1754 39.9067 34.1985 38.9568 35.6828 37.3425C37.1671 35.7282 37.9975 33.5747 38 31.3333V31.3333ZM26.5455 12V22.6667H25.2727V12H26.5455ZM17.6364 16.6667H24V20H17.6364V16.6667ZM24 15.3333H17.6364V12H24V15.3333ZM17.6364 21.3333H24V22.6667H17.6364V21.3333ZM15.0909 5.33333H26.5455V6.66667H15.0909V5.33333ZM17.6364 8H24V10.6667H17.6364V8ZM15.0909 12H16.3636V22.6667H15.0909V12ZM13.8182 24H27.8182V25.3333H13.8182V24ZM11.2727 26.6667H30.3636V28H11.2727V26.6667ZM30.3636 32H34.1366C33.9976 32.9965 33.5554 33.9194 32.8756 34.6314C32.1958 35.3435 31.3148 35.8067 30.3636 35.9522V32ZM15.0909 29.3333H26.5455V30.6667H15.0909V29.3333ZM24.6364 42.6667H17C15.819 42.6653 14.6867 42.1732 13.8516 41.2983C13.0165 40.4234 12.5468 39.2373 12.5455 38V29.3333H13.8182V31.3333C13.8182 31.5101 13.8852 31.6797 14.0046 31.8047C14.1239 31.9298 14.2858 32 14.4545 32H27.1818C27.3506 32 27.5125 31.9298 27.6318 31.8047C27.7511 31.6797 27.8182 31.5101 27.8182 31.3333V29.3333H29.0909V38C29.0896 39.2373 28.6198 40.4234 27.7847 41.2983C26.9496 42.1732 25.8174 42.6653 24.6364 42.6667V42.6667ZM30.3308 38.6391C30.3525 38.4268 30.3635 38.2135 30.3636 38V37.2954C31.7629 37.1297 33.055 36.4305 33.9939 35.331C34.9327 34.2315 35.4526 32.8085 35.4545 31.3333C35.4545 31.1565 35.3875 30.987 35.2682 30.8619C35.1488 30.7369 34.987 30.6667 34.8182 30.6667H30.3636V29.3333H34.8182C35.3243 29.334 35.8096 29.5449 36.1675 29.9198C36.5254 30.2947 36.7267 30.8031 36.7273 31.3333C36.7251 33.1681 36.0673 34.9356 34.8835 36.2877C33.6996 37.6398 32.0755 38.4787 30.3308 38.6391V38.6391Z"
		fill="black"></path></svg>