<svg width="48" height="48" viewBox="0 0 48 48" fill="none" xmlns="http://www.w3.org/2000/svg">
	<path
		d="M41.3333 36H40.6667V34C40.6667 33.6318 40.3682 33.3333 40 33.3333H38V14.6667H40C40.3682 14.6667 40.6667 14.3682 40.6667 14V10C40.6628 6.68783 37.9788 4.00391 34.6667 4H13.3333C10.0212 4.00391 7.33724 6.68783 7.33333 10V14C7.33333 14.3682 7.63184 14.6667 8 14.6667H10V33.3333H8C7.63184 33.3333 7.33333 33.6318 7.33333 34V36H6.66667C6.2985 36 6 36.2985 6 36.6667V38C6.00391 41.3122 8.68783 43.9961 12 44H36C39.3122 43.9961 41.9961 41.3122 42 38V36.6667C42 36.2985 41.7015 36 41.3333 36ZM8.66667 10C8.6696 7.42383 10.7572 5.33626 13.3333 5.33333H34.6667C37.2428 5.33626 39.3304 7.42383 39.3333 10V13.3333H8.66667V10ZM23.3333 17.3333H24.6667V18.6667H23.3333V17.3333ZM22 16C21.1527 15.999 20.3975 15.4652 20.1139 14.6667H27.8861C27.6025 15.4652 26.8473 15.999 26 16H22ZM11.3333 14.6667H18.7334C19.0524 16.2178 20.4167 17.3314 22 17.3333V19.3333C22 19.7015 22.2985 20 22.6667 20H25.3333C25.7015 20 26 19.7015 26 19.3333V17.3333C27.5833 17.3314 28.9476 16.2178 29.2666 14.6667H36.6667V33.3333H27.7627C28.9948 32.3421 29.7855 30.9046 29.9626 29.3333H30.6667C32.5075 29.3333 34 27.8408 34 26C34 24.1592 32.5075 22.6667 30.6667 22.6667H30V22C30 21.6318 29.7015 21.3333 29.3333 21.3333H18.6667C18.2985 21.3333 18 21.6318 18 22V28.6667C18.0003 30.4808 18.8232 32.1969 20.2373 33.3333H11.3333V14.6667ZM19.3333 28.6667V26.1286L20.2666 26.3161C21.4229 26.5459 22.6175 26.4948 23.75 26.1673L25.0674 25.7845C26.0739 25.4928 27.1396 25.4697 28.1579 25.7181L28.6641 25.8408V28.6667C28.6641 31.2441 26.5745 33.3333 23.9974 33.3333C21.4199 33.3333 19.3307 31.2441 19.3307 28.6667H19.3333ZM30 24H30.6667C31.7712 24 32.6667 24.8955 32.6667 26C32.6667 27.1045 31.7712 28 30.6667 28H30V24ZM28.6667 24.4668L28.4759 24.4199C27.2308 24.1178 25.9284 24.1468 24.6979 24.5033L23.3805 24.8861C22.4541 25.1543 21.4766 25.1963 20.5306 25.0081L19.3307 24.7679V22.6667H28.6667V24.4668ZM8.66667 34.6667H39.3333V36H8.66667V34.6667ZM40.6667 38C40.6637 40.5762 38.5762 42.6637 36 42.6667H12C9.42383 42.6637 7.33626 40.5762 7.33333 38V37.3333H40.6667V38Z"
		fill="black"></path>
	<path
		d="M19 9.5C19 10.3284 19.6716 11 20.5 11C21.3284 11 22 10.3284 22 9.5C22 8.67163 21.3284 8 20.5 8C19.6716 8 19 8.67163 19 9.5ZM20.5 9C20.7761 9 21 9.22388 21 9.5C21 9.77612 20.7761 10 20.5 10C20.2239 10 20 9.77612 20 9.5C20 9.22388 20.2239 9 20.5 9Z"
		fill="black"></path>
	<path
		d="M23.6667 10.3333H24C24.3682 10.3333 24.6667 10.0348 24.6667 9.66667C24.6667 9.2985 24.3682 9 24 9H23.6667C23.2985 9 23 9.2985 23 9.66667C23 10.0348 23.2985 10.3333 23.6667 10.3333Z"
		fill="black"></path>
	<path
		d="M26.3333 10.3333H26.6666C27.0348 10.3333 27.3333 10.0348 27.3333 9.66667C27.3333 9.2985 27.0348 9 26.6666 9H26.3333C25.9651 9 25.6666 9.2985 25.6666 9.66667C25.6666 10.0348 25.9651 10.3333 26.3333 10.3333Z"
		fill="black"></path></svg>