<svg width="48" height="48" viewBox="0 0 48 48" fill="none" xmlns="http://www.w3.org/2000/svg">
	<path fill-rule="evenodd" clip-rule="evenodd"
		d="M16.35 16.5C16.35 15.8648 16.8648 15.35 17.5 15.35H31.5C32.1351 15.35 32.65 15.8648 32.65 16.5V19.5C32.65 20.1351 32.1351 20.65 31.5 20.65H17.5C16.8648 20.65 16.35 20.1351 16.35 19.5V16.5ZM17.65 16.65V19.35H31.35V16.65H17.65Z"
		fill="black"></path>
	<path fill-rule="evenodd" clip-rule="evenodd"
		d="M16.5705 6.83043C16.3491 6.09257 16.9017 5.34998 17.672 5.34998H31.328C32.0983 5.34998 32.6508 6.09257 32.4295 6.83043L29.7295 15.8304C29.5835 16.3169 29.1358 16.65 28.628 16.65H20.372C19.8641 16.65 19.4164 16.3169 19.2705 15.8304L16.5705 6.83043ZM17.8736 6.64998L20.4836 15.35H28.5164L31.1264 6.64998H17.8736Z"
		fill="black"></path>
	<path fill-rule="evenodd" clip-rule="evenodd"
		d="M26.6 7C26.5212 7 26.4432 7.01552 26.3704 7.04568C26.2976 7.07583 26.2314 7.12003 26.1757 7.17575L24.1757 9.17573C24.12 9.23144 24.0758 9.29759 24.0457 9.37038C24.0155 9.44318 24 9.5212 24 9.6C24 9.6788 24.0155 9.75682 24.0457 9.82961C24.0758 9.90241 24.12 9.96856 24.1757 10.0243L26.1757 12.0243C26.2314 12.08 26.2976 12.1242 26.3704 12.1543C26.4432 12.1845 26.5212 12.2 26.6 12.2C26.6788 12.2 26.7568 12.1845 26.8296 12.1543C26.9024 12.1242 26.9686 12.08 27.0243 12.0243L29.0243 10.0243C29.08 9.96856 29.1242 9.90241 29.1543 9.82961C29.1845 9.75682 29.2 9.6788 29.2 9.6C29.2 9.5212 29.1845 9.44318 29.1543 9.37038C29.1242 9.29759 29.08 9.23144 29.0243 9.17573L27.0243 7.17575C26.9686 7.12003 26.9024 7.07583 26.8296 7.04568C26.7568 7.01552 26.6788 7 26.6 7ZM26.6 10.7515L25.4485 9.6L26.6 8.44849L27.7514 9.6L26.6 10.7515Z"
		fill="black"></path>
	<path fill-rule="evenodd" clip-rule="evenodd"
		d="M24.1757 12.1757C24.12 12.2315 24.0758 12.2976 24.0457 12.3704C24.0155 12.4432 24 12.5212 24 12.6V15.4284C24 15.5072 24.0155 15.5852 24.0457 15.658C24.0758 15.7308 24.12 15.797 24.1757 15.8527C24.2315 15.9084 24.2976 15.9526 24.3704 15.9828C24.4432 16.0129 24.5212 16.0284 24.6 16.0284L27.4284 16.0284C27.5072 16.0284 27.5852 16.0129 27.658 15.9828C27.7308 15.9526 27.797 15.9084 27.8527 15.8527C27.9084 15.797 27.9526 15.7308 27.9828 15.658C28.0129 15.5852 28.0284 15.5072 28.0284 15.4284V12.6C28.0284 12.5212 28.0129 12.4432 27.9828 12.3704C27.9526 12.2976 27.9084 12.2315 27.8527 12.1757C27.797 12.12 27.7308 12.0758 27.658 12.0457C27.5852 12.0155 27.5072 12 27.4284 12H24.6C24.5212 12 24.4432 12.0155 24.3704 12.0457C24.2976 12.0758 24.2315 12.12 24.1757 12.1757ZM26.8284 14.8285H25.2V13.2L26.8284 13.2L26.8284 14.8285Z"
		fill="black"></path>
	<path fill-rule="evenodd" clip-rule="evenodd"
		d="M20.0204 11.8589C20.0001 11.935 19.9948 12.0144 20.0051 12.0925C20.0154 12.1707 20.041 12.246 20.0804 12.3142L21.4946 14.7637C21.534 14.8319 21.5864 14.8917 21.649 14.9397C21.7115 14.9877 21.7828 15.0229 21.8589 15.0433C21.935 15.0637 22.0144 15.0689 22.0925 15.0586C22.1707 15.0483 22.246 15.0227 22.3142 14.9833L24.7637 13.5691C24.8319 13.5297 24.8917 13.4773 24.9397 13.4148C24.9877 13.3522 25.0229 13.2809 25.0433 13.2048C25.0637 13.1287 25.0689 13.0493 25.0586 12.9712C25.0483 12.893 25.0227 12.8177 24.9833 12.7495L23.5691 10.3C23.5297 10.2318 23.4773 10.172 23.4148 10.124C23.3522 10.076 23.2809 10.0408 23.2048 10.0204C23.1287 10.0001 23.0493 9.99485 22.9712 10.0051C22.893 10.0154 22.8177 10.041 22.7495 10.0804L20.3 11.4946C20.2318 11.534 20.172 11.5864 20.124 11.649C20.076 11.7115 20.0408 11.7828 20.0204 11.8589ZM23.6441 12.8299L22.2338 13.6441L21.4196 12.2338L22.8299 11.4196L23.6441 12.8299Z"
		fill="black"></path>
	<path fill-rule="evenodd" clip-rule="evenodd"
		d="M21.394 3.6868C21.6096 3.47114 21.9021 3.34998 22.2071 3.34998H26.7929C27.0979 3.34998 27.3904 3.47114 27.6061 3.6868L30.5693 6.64998H18.4308L21.394 3.6868ZM22.2693 4.64998L21.5693 5.34998H27.4308L26.7308 4.64998H22.2693Z"
		fill="black"></path>
	<path fill-rule="evenodd" clip-rule="evenodd"
		d="M27.0001 28.35L27.0001 23.6734L27.734 22.65L21.2661 22.65L22.0001 23.6734L22.0001 28.35L27.0001 28.35ZM21.7001 29.65C21.1478 29.65 20.7001 29.2023 20.7001 28.65L20.7001 24.0914L18.734 21.35L30.2661 21.35L28.3001 24.0914L28.3001 28.65C28.3001 29.2023 27.8523 29.65 27.3001 29.65L21.7001 29.65Z"
		fill="black"></path>
	<path fill-rule="evenodd" clip-rule="evenodd"
		d="M14.35 20.5C14.35 19.8648 14.8648 19.35 15.5 19.35H33.5C34.1351 19.35 34.65 19.8648 34.65 20.5V21.5C34.65 22.1351 34.1351 22.65 33.5 22.65H15.5C14.8648 22.65 14.35 22.1351 14.35 21.5V20.5ZM15.65 20.65V21.35H33.35V20.65H15.65Z"
		fill="black"></path>
	<path fill-rule="evenodd" clip-rule="evenodd"
		d="M17.7688 24.7759L15.5006 22.4161L16.4993 21.5839L18.7675 23.9437C19.1499 24.3164 19.1499 24.614 19.1499 25V29.8186C19.1499 30.0165 19.1143 30.2127 19.0449 30.398L16.1085 39.2282C15.8892 39.813 15.7899 40.6233 16.0585 41.2407C16.1851 41.5318 16.3985 41.7953 16.757 41.9939C17.1243 42.1972 17.6768 42.35 18.4999 42.35H30.5C31.3231 42.35 31.8756 42.1972 32.2429 41.9939C32.6014 41.7953 32.8148 41.5318 32.9414 41.2407C33.21 40.6233 33.1107 39.813 32.8914 39.2282L29.955 30.398C29.8856 30.2127 29.85 30.0165 29.85 29.8186V25C29.85 24.638 29.85 24.2969 30.2324 23.9437L32.5006 21.5839L33.4993 22.4161L31.2311 24.7759C31.1787 24.8388 31.15 24.9181 31.15 25V29.8186C31.15 29.8606 31.1575 29.9022 31.1723 29.9415L34.1086 38.7718C34.3893 39.5203 34.59 40.71 34.1335 41.7593C33.8976 42.3015 33.4923 42.788 32.8727 43.1311C32.2618 43.4694 31.4769 43.65 30.5 43.65H18.4999C17.523 43.65 16.7381 43.4694 16.1272 43.1311C15.5077 42.788 15.1023 42.3015 14.8664 41.7593C14.4099 40.71 14.6106 39.5203 14.8913 38.7718L17.8276 29.9415C17.8424 29.9022 17.8499 29.8606 17.8499 29.8186V25C17.8499 24.9181 17.8212 24.8388 17.7688 24.7759Z"
		fill="black"></path>
	<path fill-rule="evenodd" clip-rule="evenodd"
		d="M25.2772 36.0571C22.7347 35.0401 19.4803 34.6158 17.1177 35.0884L16.8823 33.9117C19.5197 33.3842 23.013 33.859 25.7228 34.9429C26.8596 35.3976 28.0783 35.4748 29.1445 35.2844C30.2223 35.0919 31.0811 34.639 31.5484 34.1049L32.4515 34.8951C31.7522 35.6944 30.611 36.2415 29.3555 36.4657C28.0884 36.6919 26.6404 36.6024 25.2772 36.0571Z"
		fill="black"></path></svg>