<svg width="48" height="48" viewBox="0 0 48 48" fill="none" xmlns="http://www.w3.org/2000/svg">
	<path
		d="M34.3335 17.3388H32.3335V14.0061C32.3335 13.638 32.035 13.3396 31.6669 13.3396H23.6671V12.673H27.0003C27.3685 12.673 27.667 12.3749 27.667 12.0065V10.6734C27.667 9.56918 26.7715 8.67385 25.667 8.67385H23.6671V7.88495C24.5854 7.56015 25.1361 6.62121 24.9714 5.66145C24.8067 4.70168 23.9744 4 23.0004 4C22.0262 4 21.1939 4.70168 21.0291 5.66145C20.8644 6.62121 21.4155 7.56015 22.3338 7.88495V8.67385H20.3338C19.2291 8.67385 18.3339 9.56918 18.3339 10.6734V12.0065C18.3339 12.3749 18.6324 12.673 19.0006 12.673H22.3338V13.3396H11.6674C11.4291 13.3396 11.2088 13.4665 11.0896 13.6728C10.9702 13.8788 10.9702 14.133 11.0893 14.3394L12.696 17.1389C13.3318 18.2491 13.6667 19.5063 13.6674 20.7856V40.6673C13.6693 42.5071 15.1605 43.998 17.0006 44H29.0003C30.8401 43.998 32.3312 42.5071 32.3335 40.6673V37.3347H34.3335C36.9096 37.3318 38.9971 35.2446 39 32.669V22.0045C38.9971 19.4292 36.9096 17.3417 34.3335 17.3388V17.3388ZM23.0004 5.3412C23.3686 5.3412 23.6671 5.63964 23.6671 6.00773C23.6671 6.37614 23.3686 6.67426 23.0004 6.67426C22.6323 6.67426 22.3338 6.37614 22.3338 6.00773C22.3338 5.63964 22.6323 5.3412 23.0004 5.3412ZM19.6672 10.6734C19.6672 10.3054 19.9657 10.0069 20.3338 10.0069H25.667C26.0352 10.0069 26.3337 10.3054 26.3337 10.6734V11.34H19.6672V10.6734ZM31.0002 32.0024V33.3355H15.0007V32.0024H31.0002ZM32.3335 21.3379H34.3335C34.7016 21.3379 35.0001 21.6364 35.0001 22.0045V32.669C35.0001 33.0374 34.7016 33.3355 34.3335 33.3355H32.3335V21.3379ZM31.0002 14.6726V30.6694H23.6671V14.6726H31.0002ZM13.8519 16.4724L12.8188 14.6726H22.3338V30.6694H15.0007V20.7856C15.0003 19.2723 14.6042 17.7853 13.8519 16.4724ZM31.0002 40.6673C31.0002 41.7719 30.1047 42.6669 29.0003 42.6669H17.0006C15.8958 42.6669 15.0007 41.7719 15.0007 40.6673V34.6686H31.0002V40.6673ZM37.6667 32.669C37.6644 34.5088 36.1733 35.9997 34.3335 36.0016H32.3335V34.6686H34.3335C35.4379 34.6686 36.3334 33.7736 36.3334 32.669V22.0045C36.3334 20.9002 35.4379 20.0049 34.3335 20.0049H32.3335V18.6718H34.3335C36.1733 18.6741 37.6644 20.165 37.6667 22.0045V32.669Z"
		fill="black"></path></svg>