<svg width="48" height="48" viewBox="0 0 48 48" fill="none" xmlns="http://www.w3.org/2000/svg">
	<path
		d="M39.913 39.3333C40.4663 39.3327 40.9968 39.1218 41.388 38.7469C41.7793 38.3719 41.9994 37.8636 42 37.3333V30.6667C41.997 28.3046 41.0607 26.0313 39.3796 24.304C37.6985 22.5766 35.3971 21.5235 32.9386 21.3563L34.0142 19.9819C34.8689 19.8951 35.66 19.5086 36.2352 18.8966C36.8105 18.2846 37.1293 17.4904 37.1304 16.6667C37.1304 16.4899 37.0571 16.3203 36.9267 16.1953C36.7962 16.0702 36.6193 16 36.4348 16H27.7507L31.5011 7.61361L32.8831 4.96484C32.9361 4.8632 32.9612 4.75025 32.9559 4.63672C32.9505 4.52319 32.915 4.41285 32.8527 4.31617C32.7903 4.2195 32.7032 4.1397 32.5997 4.08437C32.4961 4.02903 32.3795 3.99999 32.2609 4H15.5652C15.4466 3.99999 15.33 4.02903 15.2264 4.08437C15.1229 4.1397 15.0358 4.2195 14.9734 4.31617C14.9111 4.41285 14.8756 4.52319 14.8702 4.63672C14.8649 4.75025 14.89 4.8632 14.943 4.96484L16.325 7.61361L20.0754 16H10.6957C10.5112 16 10.3342 16.0702 10.2038 16.1953C10.0733 16.3203 10 16.4899 10 16.6667C10.0011 17.4904 10.3199 18.2846 10.8952 18.8966C11.4705 19.5086 12.2615 19.8951 13.1163 19.9819L14.4269 21.6567C14.3053 21.7328 14.1922 21.8208 14.0894 21.9192C13.8484 22.1502 13.6701 22.4342 13.5701 22.7464C13.4701 23.0587 13.4514 23.3896 13.5157 23.7104C13.58 24.0312 13.7253 24.332 13.939 24.5865C14.1526 24.841 14.428 25.0415 14.7411 25.1704L11.4323 39.9683C11.3237 40.4543 11.3298 40.9574 11.4502 41.4408C11.5707 41.9243 11.8024 42.3758 12.1285 42.7623C12.4545 43.1488 12.8666 43.4605 13.3347 43.6747C13.8027 43.8889 14.3148 44 14.8334 44H32.297C32.8157 44 33.3277 43.8889 33.7958 43.6747C34.2638 43.4605 34.6759 43.1488 35.002 42.7623C35.328 42.3758 35.5598 41.9243 35.6802 41.4408C35.8007 40.9574 35.8068 40.4543 35.6981 39.9683L32.4391 25.393C33.9325 25.5965 35.2993 26.3091 36.2887 27.4002C37.2782 28.4913 37.8241 29.8878 37.8261 31.3333V37.3333C37.8267 37.8636 38.0468 38.3719 38.438 38.7469C38.8293 39.1218 39.3597 39.3327 39.913 39.3333ZM15.9131 21.3333L14.8696 20H32.2608L31.2174 21.3333H15.9131ZM30.4396 6.66667H26.4299L25.7343 5.33333H31.1353L30.4396 6.66667ZM24.1788 5.33333L24.8744 6.66667H17.3865L16.6908 5.33333H24.1788ZM18.0115 8H29.8145L26.2369 16H21.5892L18.0115 8ZM11.5105 17.3333H35.6199C35.4756 17.723 35.209 18.0603 34.8567 18.2991C34.5044 18.5378 34.0836 18.6662 33.6522 18.6667H13.4783C13.0468 18.6662 12.626 18.5378 12.2737 18.2991C11.9214 18.0603 11.6549 17.723 11.5105 17.3333ZM31.0029 25.3333L32.9869 34.2062C30.1342 35.2756 26.963 35.2598 24.122 34.1621L23.2073 33.8114C20.3741 32.7226 17.2387 32.5897 14.3162 33.4344L16.1276 25.3333H31.0029ZM33.92 41.924C33.7248 42.1564 33.4776 42.3438 33.1967 42.4723C32.9158 42.6009 32.6083 42.6673 32.297 42.6667H14.8334C14.5222 42.6667 14.215 42.6 13.9341 42.4715C13.6533 42.343 13.4061 42.1559 13.2104 41.924C13.0148 41.6921 12.8757 41.4212 12.8035 41.1311C12.7312 40.841 12.7275 40.5392 12.7927 40.2476L13.9774 34.9495C16.7934 33.9418 19.9005 33.9774 22.6906 35.0494L23.6053 35.4001C26.7016 36.5968 30.1529 36.6417 33.282 35.5259L34.3377 40.2476C34.4036 40.5391 34.4002 40.8412 34.3279 41.1313C34.2556 41.4215 34.1162 41.6924 33.92 41.924H33.92ZM31.5652 24H15.5654C15.3809 24 15.2039 23.9298 15.0734 23.8049C14.9429 23.6799 14.8696 23.5103 14.8696 23.3335C14.8695 23.1567 14.9428 22.9871 15.0732 22.862C15.2036 22.737 15.3806 22.6667 15.5651 22.6667H32.2609C34.4741 22.6691 36.5959 23.5127 38.1609 25.0125C39.7259 26.5122 40.6062 28.5457 40.6087 30.6667V37.3333C40.6087 37.5101 40.5354 37.6797 40.4049 37.8047C40.2745 37.9298 40.0975 38 39.913 38C39.7285 38 39.5516 37.9298 39.4211 37.8047C39.2907 37.6797 39.2174 37.5101 39.2174 37.3333V31.3333C39.2151 29.3891 38.4082 27.5251 36.9736 26.1503C35.539 24.7755 33.594 24.0022 31.5652 24Z"
		fill="black"></path></svg>