<svg width="48" height="48" viewBox="0 0 48 48" fill="none" xmlns="http://www.w3.org/2000/svg">
	<path
		d="M36.9068 14.9907H36.9074L33.1 8.48192V4.66667C33.1 4.48986 33.0315 4.32029 32.9096 4.19526C32.7877 4.07024 32.6224 4 32.45 4H15.55C15.3776 4 15.2123 4.07024 15.0904 4.19526C14.9685 4.32029 14.9 4.48986 14.9 4.66667V8.48192L11.0926 14.9902H11.0932C11.0322 15.0938 11 15.2124 11 15.3333V43.3333C11 43.5101 11.0685 43.6797 11.1904 43.8047C11.3123 43.9298 11.4776 44 11.65 44H36.35C36.5224 44 36.6877 43.9298 36.8096 43.8047C36.9315 43.6797 37 43.5101 37 43.3333V15.3333C37 15.2125 36.9677 15.094 36.9068 14.9907ZM31.3019 9.33333L28.1819 14.6667H12.7981L15.9181 9.33333H31.3019ZM32.45 9.9625L35.2019 14.6667H29.6981L32.45 9.9625ZM29.2 16H35.7V20H29.2V16ZM31.8 5.33333V8H16.2V5.33333H31.8ZM12.3 16H27.9V20H25.95C25.433 20.0006 24.9374 20.2115 24.5718 20.5865C24.2062 20.9614 24.0006 21.4698 24 22C24 22.5304 23.7946 23.0391 23.4289 23.4142C23.0632 23.7893 22.5672 24 22.05 24C21.5328 24 21.0368 23.7893 20.6711 23.4142C20.3054 23.0391 20.1 22.5304 20.1 22C20.1 21.4696 19.8946 20.9609 19.5289 20.5858C19.1632 20.2107 18.6672 20 18.15 20C17.6328 20 17.1368 20.2107 16.7711 20.5858C16.4054 20.9609 16.2 21.4696 16.2 22V23.3333C16.2 23.8638 15.9946 24.3725 15.6289 24.7475C15.2632 25.1226 14.7672 25.3333 14.25 25.3333C13.7328 25.3333 13.2368 25.1226 12.8711 24.7475C12.5054 24.3725 12.3 23.8638 12.3 23.3333V16ZM12.3 42.6667V25.9982C12.7826 26.3702 13.3566 26.597 13.9579 26.653C14.5591 26.709 15.1636 26.5921 15.7036 26.3154C16.2437 26.0386 16.6978 25.613 17.0151 25.0863C17.3324 24.5595 17.5003 23.9525 17.5 23.3333V22C17.5 21.8232 17.5685 21.6536 17.6904 21.5286C17.8123 21.4036 17.9776 21.3333 18.15 21.3333C18.3224 21.3333 18.4877 21.4036 18.6096 21.5286C18.7315 21.6536 18.8 21.8232 18.8 22C18.8 22.8841 19.1424 23.7319 19.7519 24.357C20.3614 24.9821 21.188 25.3333 22.05 25.3333C22.912 25.3333 23.7386 24.9821 24.3481 24.357C24.9576 23.7319 25.3 22.8841 25.3 22C25.3002 21.8232 25.3687 21.6538 25.4906 21.5288C25.6124 21.4038 25.7777 21.3335 25.95 21.3333H27.9V42.6667H12.3ZM29.2 42.6667V21.3333H35.7V42.6667H29.2Z"
		fill="black"></path>
	<path
		d="M25.05 30.6667V28.6667C25.05 28.4899 24.9815 28.3203 24.8596 28.1953C24.7377 28.0702 24.5724 28 24.4 28H23.1C22.583 28.0006 22.0874 28.2115 21.7218 28.5865C21.3562 28.9614 21.1506 29.4698 21.15 30V30.6667H19.85V30C19.8494 29.4698 19.6438 28.9614 19.2782 28.5865C18.9126 28.2115 18.417 28.0006 17.9 28H16.6C16.4276 28 16.2623 28.0702 16.1404 28.1953C16.0185 28.3203 15.95 28.4899 15.95 28.6667V30.6667C15.4328 30.6667 14.9368 30.8774 14.5711 31.2525C14.2054 31.6275 14 32.1362 14 32.6667C14 33.1971 14.2054 33.7058 14.5711 34.0809C14.9368 34.456 15.4328 34.6667 15.95 34.6667H16.6V34.7813C16.2201 34.9196 15.8912 35.175 15.6585 35.5126C15.4257 35.8501 15.3005 36.2532 15.3 36.6667V38C15.3006 38.5302 15.5062 39.0386 15.8718 39.4135C16.2374 39.7885 16.733 39.9994 17.25 40H23.75C24.267 39.9994 24.7626 39.7885 25.1282 39.4135C25.4938 39.0386 25.6994 38.5302 25.7 38V36.6667C25.6995 36.2532 25.5743 35.8501 25.3415 35.5126C25.1088 35.175 24.7799 34.9196 24.4 34.7813V34.6667H25.05C25.5672 34.6667 26.0632 34.456 26.4289 34.0809C26.7946 33.7058 27 33.1971 27 32.6667C27 32.1362 26.7946 31.6275 26.4289 31.2525C26.0632 30.8774 25.5672 30.6667 25.05 30.6667ZM22.45 30C22.4502 29.8232 22.5187 29.6538 22.6406 29.5288C22.7625 29.4038 22.9277 29.3335 23.1 29.3333H23.75V30.6667H22.45V30ZM23.1 34.6667H17.9V32H23.1V34.6667ZM17.25 29.3333H17.9C18.0723 29.3335 18.2375 29.4038 18.3594 29.5288C18.4813 29.6538 18.5498 29.8232 18.55 30V30.6667H17.25V29.3333ZM15.95 33.3333C15.7776 33.3333 15.6123 33.2631 15.4904 33.1381C15.3685 33.013 15.3 32.8435 15.3 32.6667C15.3 32.4899 15.3685 32.3203 15.4904 32.1953C15.6123 32.0702 15.7776 32 15.95 32H16.6V33.3333H15.95ZM24.4 38C24.3998 38.1768 24.3313 38.3462 24.2094 38.4712C24.0875 38.5962 23.9223 38.6665 23.75 38.6667H17.25C17.0777 38.6665 16.9125 38.5962 16.7906 38.4712C16.6687 38.3462 16.6002 38.1768 16.6 38V36.6667C16.6002 36.4899 16.6687 36.3205 16.7906 36.1955C16.9125 36.0705 17.0777 36.0002 17.25 36H23.75C23.9223 36.0002 24.0875 36.0705 24.2094 36.1955C24.3313 36.3205 24.3998 36.4899 24.4 36.6667V38ZM25.05 33.3333H24.4V32H25.05C25.2224 32 25.3877 32.0702 25.5096 32.1953C25.6315 32.3203 25.7 32.4899 25.7 32.6667C25.7 32.8435 25.6315 33.013 25.5096 33.1381C25.3877 33.2631 25.2224 33.3333 25.05 33.3333Z"
		fill="black"></path>
	<path
		d="M18.5 38C18.7761 38 19 37.7761 19 37.5C19 37.2239 18.7761 37 18.5 37C18.2239 37 18 37.2239 18 37.5C18 37.7761 18.2239 38 18.5 38Z"
		fill="black"></path>
	<path
		d="M22.5 38C22.7761 38 23 37.7761 23 37.5C23 37.2239 22.7761 37 22.5 37C22.2239 37 22 37.2239 22 37.5C22 37.7761 22.2239 38 22.5 38Z"
		fill="black"></path></svg>