<svg width="48" height="48" viewBox="0 0 48 48" fill="none" xmlns="http://www.w3.org/2000/svg">
	<path
		d="M38 24.3125H36V23.6562C36 23.5701 35.9828 23.4847 35.9493 23.4051C35.9158 23.3255 35.8667 23.2531 35.8047 23.1922C35.7428 23.1313 35.6693 23.0829 35.5885 23.0499C35.5076 23.017 35.4209 23 35.3333 23H15.3333C15.2458 23 15.1591 23.017 15.0782 23.0499C14.9973 23.0829 14.9238 23.1313 14.8619 23.1922C14.8 23.2531 14.7509 23.3255 14.7174 23.4051C14.6839 23.4847 14.6667 23.5701 14.6667 23.6562V26.9375H7.33333C7.24578 26.9375 7.15909 26.9545 7.07821 26.9875C6.99732 27.0204 6.92383 27.0688 6.86192 27.1297C6.80002 27.1906 6.75091 27.263 6.71741 27.3426C6.68391 27.4222 6.66666 27.5076 6.66667 27.5938V34.8125H4.66667C4.57912 34.8125 4.49243 34.8295 4.41154 34.8625C4.33066 34.8954 4.25716 34.9438 4.19526 35.0047C4.13335 35.0656 4.08424 35.138 4.05074 35.2176C4.01724 35.2972 4 35.3826 4 35.4688V43.3438C4 43.4299 4.01724 43.5153 4.05074 43.5949C4.08424 43.6745 4.13335 43.7469 4.19526 43.8078C4.25716 43.8687 4.33066 43.9171 4.41154 43.9501C4.49243 43.983 4.57912 44 4.66667 44H38C38.8838 43.999 39.731 43.653 40.3559 43.0379C40.9808 42.4227 41.3323 41.5887 41.3333 40.7188C41.3333 40.6326 41.3161 40.5472 41.2826 40.4676C41.2491 40.388 41.2 40.3156 41.1381 40.2547C41.0762 40.1938 41.0027 40.1454 40.9218 40.1124C40.8409 40.0795 40.7542 40.0625 40.6667 40.0625H31.9469C32.7938 39.536 33.5424 38.87 34.16 38.0938H38C39.5907 38.092 41.1158 37.4691 42.2406 36.3619C43.3655 35.2546 43.9982 33.7534 44 32.1875V30.2188C43.9982 28.6529 43.3655 27.1516 42.2406 26.0444C41.1158 24.9371 39.5907 24.3143 38 24.3125ZM36 28.25H38C38.5303 28.2506 39.0386 28.4582 39.4136 28.8273C39.7885 29.1964 39.9994 29.6968 40 30.2188V32.1875C39.9994 32.7095 39.7885 33.2099 39.4136 33.579C39.0386 33.9481 38.5303 34.1557 38 34.1562H35.8974C35.9658 33.722 36.0001 33.2832 36 32.8438V28.25ZM18.3431 42.4157L13.6291 37.7753L18.3431 33.1349L23.0572 37.7753L18.3431 42.4157ZM16.7337 42.6875H13.3333V39.3403L16.7337 42.6875ZM8 28.25H14.6667V34.8125H8V28.25ZM12 42.6875H5.33333V36.125H12V42.6875ZM39.8857 41.375C39.7474 41.7586 39.492 42.0907 39.1543 42.3256C38.8167 42.5606 38.4135 42.687 38 42.6875H19.9526L21.2859 41.375H39.8857ZM27.3333 40.0625H23.3333C23.105 40.0625 22.8776 40.0521 22.6511 40.0312L24.4714 38.2393C24.5333 38.1784 24.5824 38.106 24.6159 38.0264C24.6494 37.9468 24.6667 37.8615 24.6667 37.7753C24.6667 37.6891 24.6494 37.6038 24.6159 37.5241C24.5824 37.4445 24.5333 37.3722 24.4714 37.3112L18.8145 31.7428C18.6895 31.6197 18.5199 31.5506 18.3431 31.5506C18.1663 31.5506 17.9968 31.6197 17.8717 31.7428L16 33.5853V24.3125H34.6667V32.8438C34.6645 34.7576 33.8911 36.5925 32.5164 37.9458C31.1416 39.2991 29.2776 40.0603 27.3333 40.0625ZM42.6667 32.1875C42.6653 33.4054 42.1732 34.5731 41.2983 35.4342C40.4234 36.2954 39.2372 36.7799 38 36.7812H35.0199C35.2435 36.36 35.4308 35.9209 35.5797 35.4688H38C38.8838 35.4678 39.731 35.1218 40.3559 34.5066C40.9808 33.8915 41.3323 33.0574 41.3333 32.1875V30.2188C41.3323 29.3488 40.9808 28.5148 40.3559 27.8996C39.731 27.2845 38.8838 26.9385 38 26.9375H36V25.625H38C39.2372 25.6264 40.4234 26.1108 41.2983 26.972C42.1732 27.8332 42.6653 29.0008 42.6667 30.2188V32.1875Z"
		fill="black"></path>
	<path
		d="M21.8691 18.6396H19.8645C18.7003 18.6396 17.5529 18.3547 16.5177 17.8085C15.4826 17.2624 14.5895 16.4708 13.9128 15.4996L11.8965 12.6057C11.6304 12.2229 11.3007 11.891 10.9225 11.6252L4.76563 7.19915L4.00371 8.31305L10.1669 12.7436C10.4192 12.9203 10.6392 13.1413 10.8167 13.3964L12.833 16.2903C13.6324 17.4378 14.6875 18.373 15.9105 19.0182C17.1335 19.6634 18.4891 20 19.8645 20H21.8691C22.3105 19.9993 22.7355 19.8285 23.0598 19.5214C23.384 19.2144 23.5837 18.7935 23.6193 18.3425L23.7098 18.3722C23.7927 18.3994 23.8802 18.4097 23.967 18.4023C24.0539 18.3949 24.1385 18.37 24.2159 18.3291C24.2934 18.2881 24.3622 18.2319 24.4185 18.1637C24.4748 18.0954 24.5173 18.0165 24.5438 17.9314L26.9685 10.1565C27.0221 9.98466 27.0069 9.79804 26.9262 9.63769C26.8456 9.47734 26.7062 9.3564 26.5385 9.30145L18.9546 6.81565C18.787 6.76072 18.6049 6.7763 18.4485 6.85896C18.2921 6.94163 18.1741 7.0846 18.1205 7.25644L16.2548 13.2392C15.7304 12.7306 15.2492 12.1773 14.8163 11.5852L14.5266 11.1891C14.2707 10.8391 13.961 10.5342 13.6094 10.2864L4.75552 4L4 5.11839L12.8558 11.4061C13.0893 11.5706 13.295 11.773 13.465 12.0054L13.7547 12.4015C14.7119 13.711 15.8799 14.8437 17.2084 15.7509C18.6458 16.7353 20.2582 17.42 21.9536 17.7659C22.0583 17.7874 22.1515 17.848 22.215 17.936C22.2785 18.0239 22.3079 18.133 22.2973 18.2419C22.2868 18.3509 22.2372 18.4519 22.158 18.5254C22.0789 18.5989 21.9759 18.6396 21.8691 18.6396ZM17.9445 14.6189C17.7423 14.4807 17.5461 14.335 17.3527 14.1859L19.1825 8.31862L25.5025 10.3901L23.4819 16.8692L22.699 16.6126C22.5469 16.528 22.3833 16.467 22.2137 16.4318C20.6884 16.1206 19.2377 15.5046 17.9445 14.6189Z"
		fill="black"></path>
	<path d="M7 38H8V39H7V38Z" fill="black"></path>
	<path d="M8 40H10V41H8V40Z" fill="black"></path>
	<path d="M9 29H10V30H9V29Z" fill="black"></path>
	<path d="M11 32H12V33H11V32Z" fill="black"></path>
	<path d="M17.4052 35.8011L18.3464 34.8598L19.2877 35.8011L18.3464 36.7423L17.4052 35.8011Z"
		fill="black"></path>
	<path d="M16.934 39.0958L17.8752 38.1545L18.8165 39.0958L17.8752 40.037L16.934 39.0958Z"
		fill="black"></path>
	<path d="M20.0107 11.5404L20.4168 10.2716L21.6856 10.6777L21.2795 11.9465L20.0107 11.5404Z"
		fill="black"></path>
	<path d="M21.1045 14.6863L21.5106 13.4175L22.7793 13.8236L22.3733 15.0923L21.1045 14.6863Z"
		fill="black"></path></svg>