<svg width="48" height="48" viewBox="0 0 48 48" fill="none" xmlns="http://www.w3.org/2000/svg">
	<path
		d="M27.7299 20.7401C26.9397 19.9541 26.4968 18.8846 26.5 17.77V16.1054C26.9317 15.8573 27.1985 15.3979 27.2 14.9V12.1C27.2 11.3268 26.5732 10.7 25.8 10.7H24.4V8.6H25.8C26.5732 8.6 27.2 7.9732 27.2 7.2V6.5H31.4C31.5856 6.50004 31.7637 6.57382 31.8949 6.7051L33.5854 8.3949C33.8601 8.66018 34.2967 8.65639 34.5667 8.38637C34.8367 8.11636 34.8405 7.67977 34.5752 7.4051L32.8847 5.7153C32.4917 5.3204 31.9572 5.09888 31.4 5.1H27.2V4.4C27.2 3.6268 26.5732 3 25.8 3H21.6C20.8268 3 20.2 3.6268 20.2 4.4V7.2C20.2 7.9732 20.8268 8.6 21.6 8.6H23V10.7H21.6C20.8268 10.7 20.2 11.3268 20.2 12.1V14.9C20.2015 15.3979 20.4683 15.8573 20.9 16.1054V17.77C20.903 18.8843 20.4601 19.9535 19.6701 20.7394L17.7248 22.6847C17.0664 23.3398 16.6973 24.2311 16.7 25.1599V26.9946C16.2683 27.2427 16.0015 27.7021 16 28.2V30.3C16.0015 30.7979 16.2683 31.2573 16.7 31.5054V40.2946C16.2683 40.5427 16.0015 41.0021 16 41.5V43.6C16 44.3732 16.6268 45 17.4 45H30C30.7732 45 31.4 44.3732 31.4 43.6V41.5C31.3985 41.0021 31.1317 40.5427 30.7 40.2946V31.5054C31.1317 31.2573 31.3985 30.7979 31.4 30.3V28.2C31.3985 27.7021 31.1317 27.2427 30.7 26.9946V25.1599C30.7027 24.2311 30.3336 23.3398 29.6752 22.6847L27.7299 20.7401ZM21.6 4.4H25.8V7.2H21.6V4.4ZM23.4375 28.2H30V30.3H17.4V28.2H23.7C24.0866 28.2 24.4 27.8866 24.4 27.5C24.4 27.1134 24.0866 26.8 23.7 26.8H18.1V25.1599C18.1012 25.0051 18.1195 24.8508 18.1546 24.7H29.2454C29.2805 24.8508 29.2988 25.0051 29.3 25.1599V26.8H23.4375C23.0509 26.8 22.7375 27.1134 22.7375 27.5C22.7375 27.8866 23.0509 28.2 23.4375 28.2ZM21.6 12.1H25.8V14.9H21.6V12.1ZM20.6599 21.7299C21.7136 20.682 22.3042 19.256 22.3 17.77V16.3H25.1V17.77C25.096 19.2558 25.6866 20.6815 26.7401 21.7292L28.3102 23.3H19.0898L20.6599 21.7299ZM30 43.6H17.4V41.5H24.05C24.4366 41.5 24.75 41.1866 24.75 40.8C24.75 40.4134 24.4366 40.1 24.05 40.1H18.1V31.7H29.3V40.1H23.7C23.3134 40.1 23 40.4134 23 40.8C23 41.1866 23.3134 41.5 23.7 41.5H30V43.6Z"
		fill="black"></path>
	<path
		d="M25.8 36.3C25.8 35.9134 25.4866 35.6 25.1 35.6H22.3C21.9134 35.6 21.6 35.9134 21.6 36.3C21.6 36.6866 21.9134 37 22.3 37H25.1C25.4866 37 25.8 36.6866 25.8 36.3Z"
		fill="black"></path></svg>